<svg xmlns="http://www.w3.org/2000/svg" width="270" height="88" viewBox="0 0 270 88" role="img" aria-label="GitHub for RavaliMeka"><defs><linearGradient id="bg" x1="0" y1="0" x2="1" y2="1"><stop offset="0" stop-color="#060913"/><stop offset="1" stop-color="#0d1428"/></linearGradient><radialGradient id="au1"><stop offset="0" stop-color="#2ff5a8" stop-opacity="0.42"/><stop offset="1" stop-color="#2ff5a8" stop-opacity="0"/></radialGradient><radialGradient id="au2"><stop offset="0" stop-color="#22b8ff" stop-opacity="0.4"/><stop offset="1" stop-color="#22b8ff" stop-opacity="0"/></radialGradient><linearGradient id="edge" x1="0" y1="0" x2="1" y2="1"><stop offset="0" stop-color="#ffffff" stop-opacity="0.42"/><stop offset="0.45" stop-color="#ffffff" stop-opacity="0.07"/><stop offset="1" stop-color="#22b8ff" stop-opacity="0.55"/></linearGradient><linearGradient id="hl" x1="0" y1="0" x2="1" y2="0"><stop offset="0" stop-color="#ffffff" stop-opacity="0"/><stop offset="0.5" stop-color="#ffffff" stop-opacity="0.6"/><stop offset="1" stop-color="#ffffff" stop-opacity="0"/></linearGradient><linearGradient id="acc" x1="0" y1="0" x2="1" y2="0"><stop offset="0" stop-color="#2ff5a8"/><stop offset="1" stop-color="#22b8ff"/></linearGradient><linearGradient id="accv" x1="0" y1="1" x2="0" y2="0"><stop offset="0" stop-color="#22b8ff"/><stop offset="1" stop-color="#2ff5a8"/></linearGradient><linearGradient id="fade" x1="0" y1="0" x2="1" y2="0"><stop offset="0" stop-color="#2ff5a8" stop-opacity="0.6"/><stop offset="1" stop-color="#2ff5a8" stop-opacity="0"/></linearGradient><filter id="glow" x="-60%" y="-60%" width="220%" height="220%"><feGaussianBlur stdDeviation="2.6" result="b"/><feMerge><feMergeNode in="b"/><feMergeNode in="SourceGraphic"/></feMerge></filter><pattern id="grid" width="24" height="24" patternUnits="userSpaceOnUse"><path d="M24 0H0V24" fill="none" stroke="#ffffff" stroke-opacity="0.04"/></pattern><clipPath id="clip"><rect width="270" height="88" rx="18"/></clipPath></defs><g clip-path="url(#clip)"><rect width="270" height="88" fill="url(#bg)"/><rect width="270" height="88" fill="url(#grid)"/><g><circle cx="248" cy="-16" r="162" fill="url(#au1)"/></g><g><circle cx="11" cy="104" r="149" fill="url(#au2)"/></g><rect width="270" height="88" fill="#ffffff" fill-opacity="0.035"/><rect x="28" y="0.6" width="214" height="1.2" fill="url(#hl)"/><rect x="0" y="0.5" width="76" height="1.6" fill="url(#hl)"/></g><rect x="0.75" y="0.75" width="268.5" height="86.5" rx="17.5" fill="none" stroke="url(#edge)" stroke-width="1.5"/><g><g transform="translate(0 6)"><circle cx="44" cy="38" r="24" fill="#ffffff" fill-opacity="0.06" stroke="url(#acc)" stroke-width="1.5"/><g filter="url(#glow)"><circle cx="38" cy="30" r="3" fill="none" stroke="#2ff5a8" stroke-width="2" stroke-linecap="round" stroke-linejoin="round"/><circle cx="38" cy="46" r="3" fill="none" stroke="#2ff5a8" stroke-width="2" stroke-linecap="round" stroke-linejoin="round"/><circle cx="51" cy="34" r="3" fill="none" stroke="#2ff5a8" stroke-width="2" stroke-linecap="round" stroke-linejoin="round"/><path d="M38 33V43M51 37C51 42 38 40 38 43" fill="none" stroke="#2ff5a8" stroke-width="2" stroke-linecap="round" stroke-linejoin="round"/></g></g><text x="84" y="40" font-family="system-ui,-apple-system,'Segoe UI',Roboto,Helvetica,Arial,sans-serif" font-size="19" font-weight="700" fill="#ffffff">GitHub</text><text x="84" y="64" font-family="ui-monospace,SFMono-Regular,Menlo,Consolas,monospace" font-size="14" fill="#ffffff" fill-opacity="0.62">@RavaliMeka</text><path d="M236 44H250M244 37L251 44L244 51" fill="none" stroke="#ffffff" stroke-opacity="0.6" stroke-width="2.2" stroke-linecap="round" stroke-linejoin="round"/></g></svg>