<svg xmlns="http://www.w3.org/2000/svg" width="420" height="156" viewBox="0 0 420 156" role="img" aria-label="RavaliMeka"><defs><linearGradient id="bg" x1="0" y1="0" x2="1" y2="1"><stop offset="0" stop-color="#060913"/><stop offset="1" stop-color="#0d1428"/></linearGradient><radialGradient id="au1"><stop offset="0" stop-color="#2ff5a8" stop-opacity="0.42"/><stop offset="1" stop-color="#2ff5a8" stop-opacity="0"/></radialGradient><radialGradient id="au2"><stop offset="0" stop-color="#22b8ff" stop-opacity="0.4"/><stop offset="1" stop-color="#22b8ff" stop-opacity="0"/></radialGradient><linearGradient id="edge" x1="0" y1="0" x2="1" y2="1"><stop offset="0" stop-color="#ffffff" stop-opacity="0.42"/><stop offset="0.45" stop-color="#ffffff" stop-opacity="0.07"/><stop offset="1" stop-color="#22b8ff" stop-opacity="0.55"/></linearGradient><linearGradient id="hl" x1="0" y1="0" x2="1" y2="0"><stop offset="0" stop-color="#ffffff" stop-opacity="0"/><stop offset="0.5" stop-color="#ffffff" stop-opacity="0.6"/><stop offset="1" stop-color="#ffffff" stop-opacity="0"/></linearGradient><linearGradient id="acc" x1="0" y1="0" x2="1" y2="0"><stop offset="0" stop-color="#2ff5a8"/><stop offset="1" stop-color="#22b8ff"/></linearGradient><linearGradient id="accv" x1="0" y1="1" x2="0" y2="0"><stop offset="0" stop-color="#22b8ff"/><stop offset="1" stop-color="#2ff5a8"/></linearGradient><linearGradient id="fade" x1="0" y1="0" x2="1" y2="0"><stop offset="0" stop-color="#2ff5a8" stop-opacity="0.6"/><stop offset="1" stop-color="#2ff5a8" stop-opacity="0"/></linearGradient><filter id="glow" x="-60%" y="-60%" width="220%" height="220%"><feGaussianBlur stdDeviation="2.6" result="b"/><feMerge><feMergeNode in="b"/><feMergeNode in="SourceGraphic"/></feMerge></filter><pattern id="grid" width="24" height="24" patternUnits="userSpaceOnUse"><path d="M24 0H0V24" fill="none" stroke="#ffffff" stroke-opacity="0.04"/></pattern><clipPath id="clip"><rect width="420" height="156" rx="18"/></clipPath></defs><g clip-path="url(#clip)"><rect width="420" height="156" fill="url(#bg)"/><rect width="420" height="156" fill="url(#grid)"/><g><circle cx="386" cy="-28" r="252" fill="url(#au1)"/></g><g><circle cx="17" cy="184" r="231" fill="url(#au2)"/></g><rect width="420" height="156" fill="#ffffff" fill-opacity="0.035"/><rect x="28" y="0.6" width="364" height="1.2" fill="url(#hl)"/><rect x="0" y="0.5" width="118" height="1.6" fill="url(#hl)"/></g><rect x="0.75" y="0.75" width="418.5" height="154.5" rx="17.5" fill="none" stroke="url(#edge)" stroke-width="1.5"/><g><defs><linearGradient id="pnameg" x1="0" y1="0" x2="1" y2="0"><stop offset="0" stop-color="#fff"/><stop offset="0.88" stop-color="#fff"/><stop offset="1" stop-color="#000"/></linearGradient><mask id="pname" maskUnits="userSpaceOnUse" x="28" y="0" width="322" height="156"><rect x="28" y="0" width="322" height="156" fill="url(#pnameg)"/></mask></defs><defs><linearGradient id="pdescg" x1="0" y1="0" x2="1" y2="0"><stop offset="0" stop-color="#fff"/><stop offset="0.88" stop-color="#fff"/><stop offset="1" stop-color="#000"/></linearGradient><mask id="pdesc" maskUnits="userSpaceOnUse" x="28" y="0" width="364" height="156"><rect x="28" y="0" width="364" height="156" fill="url(#pdescg)"/></mask></defs><g mask="url(#pname)"><text x="28" y="44" font-family="system-ui,-apple-system,'Segoe UI',Roboto,Helvetica,Arial,sans-serif" font-size="21" font-weight="700" letter-spacing="-0.2" fill="#ffffff">RavaliMeka</text></g><path d="M372 38L386 24M377 24H386V33" fill="none" stroke="#2ff5a8" stroke-width="2" stroke-linecap="round" stroke-linejoin="round" filter="url(#glow)"/><g mask="url(#pdesc)"><text x="28" y="74" font-family="system-ui,-apple-system,'Segoe UI',Roboto,Helvetica,Arial,sans-serif" font-size="15" fill="#ffffff" fill-opacity="0.48">No description yet</text></g><rect x="28" y="110" width="364" height="1" fill="url(#fade)"/><text x="392" y="136" text-anchor="end" font-family="system-ui,-apple-system,'Segoe UI',Roboto,Helvetica,Arial,sans-serif" font-size="14" fill="#ffffff" fill-opacity="0.62">Updated Oct 2026</text></g></svg>